<mxfile host="app.diagrams.net" modified="2022-06-01T07:33:50.455Z" agent="5.0 (Windows NT 10.0; Win64; x64) AppleWebKit/537.36 (KHTML, like Gecko) Chrome/101.0.4951.64 Safari/537.36 Edg/101.0.1210.53" etag="yvRYYRwI2jo1ZeG8IWVQ" version="18.1.3" type="github">
  <diagram id="q2PeO9nX9vCA8HKU3orV" name="Page-1">
    <mxGraphModel dx="1038" dy="579" grid="1" gridSize="10" guides="1" tooltips="1" connect="1" arrows="1" fold="1" page="1" pageScale="1" pageWidth="827" pageHeight="1169" math="0" shadow="0">
      <root>
        <mxCell id="0" />
        <mxCell id="1" parent="0" />
        <mxCell id="SSJctu6AzqgMsBqIdtnh-2" value="&lt;b&gt;&lt;font color=&quot;#000000&quot;&gt;Qemu&lt;/font&gt;&lt;/b&gt;" style="sketch=0;points=[[0,0,0],[0.25,0,0],[0.5,0,0],[0.75,0,0],[1,0,0],[1,0.25,0],[1,0.5,0],[1,0.75,0],[1,1,0],[0.75,1,0],[0.5,1,0],[0.25,1,0],[0,1,0],[0,0.75,0],[0,0.5,0],[0,0.25,0]];rounded=1;absoluteArcSize=1;arcSize=2;html=1;strokeColor=none;gradientColor=none;shadow=0;dashed=0;fontSize=12;fontColor=#9E9E9E;align=left;verticalAlign=top;spacing=10;spacingTop=-4;fillColor=#F1F8E9;" parent="1" vertex="1">
          <mxGeometry x="170" y="350" width="480" height="270" as="geometry" />
        </mxCell>
        <mxCell id="SSJctu6AzqgMsBqIdtnh-1" value="source VM" style="verticalLabelPosition=bottom;html=1;verticalAlign=top;align=center;strokeColor=none;fillColor=#00BEF2;shape=mxgraph.azure.computer;pointerEvents=1;" parent="1" vertex="1">
          <mxGeometry x="190" y="390" width="50" height="45" as="geometry" />
        </mxCell>
        <mxCell id="SSJctu6AzqgMsBqIdtnh-7" value="&lt;p style=&quot;margin: 0px ; margin-top: 6px ; text-align: center&quot;&gt;&lt;b&gt;migration&lt;/b&gt;&lt;/p&gt;&lt;hr&gt;&lt;p style=&quot;margin: 0px ; margin-left: 8px&quot;&gt;+ migration_iteration_run: int&lt;br&gt;+ migration_completion: int&lt;/p&gt;" style="align=left;overflow=fill;html=1;dropTarget=0;fontColor=#000000;" parent="1" vertex="1">
          <mxGeometry x="270" y="360" width="165" height="70" as="geometry" />
        </mxCell>
        <mxCell id="SSJctu6AzqgMsBqIdtnh-8" value="" style="shape=component;jettyWidth=8;jettyHeight=4;fontColor=#000000;" parent="SSJctu6AzqgMsBqIdtnh-7" vertex="1">
          <mxGeometry x="1" width="20" height="20" relative="1" as="geometry">
            <mxPoint x="-24" y="4" as="offset" />
          </mxGeometry>
        </mxCell>
        <mxCell id="SSJctu6AzqgMsBqIdtnh-9" value="&lt;p style=&quot;margin: 0px ; margin-top: 6px ; text-align: center&quot;&gt;&lt;b&gt;qemu_savevm_state&lt;/b&gt;&lt;/p&gt;&lt;hr&gt;&lt;p style=&quot;margin: 0px ; margin-left: 8px&quot;&gt;+ qemu_savevm_&lt;/p&gt;&lt;p style=&quot;margin: 0px ; margin-left: 8px&quot;&gt;&amp;nbsp; &amp;nbsp;state_iterate: int&lt;br&gt;&lt;/p&gt;" style="align=left;overflow=fill;html=1;dropTarget=0;fontColor=#000000;" parent="1" vertex="1">
          <mxGeometry x="270" y="450" width="165" height="70" as="geometry" />
        </mxCell>
        <mxCell id="SSJctu6AzqgMsBqIdtnh-10" value="" style="shape=component;jettyWidth=8;jettyHeight=4;fontColor=#000000;" parent="SSJctu6AzqgMsBqIdtnh-9" vertex="1">
          <mxGeometry x="1" width="20" height="20" relative="1" as="geometry">
            <mxPoint x="-24" y="4" as="offset" />
          </mxGeometry>
        </mxCell>
        <mxCell id="SSJctu6AzqgMsBqIdtnh-20" style="edgeStyle=orthogonalEdgeStyle;rounded=0;orthogonalLoop=1;jettySize=auto;html=1;exitX=1;exitY=0.5;exitDx=0;exitDy=0;entryX=0;entryY=0.5;entryDx=0;entryDy=0;entryPerimeter=0;fontColor=#000000;dashed=1;dashPattern=1 1;" parent="1" source="SSJctu6AzqgMsBqIdtnh-12" target="SSJctu6AzqgMsBqIdtnh-19" edge="1">
          <mxGeometry relative="1" as="geometry" />
        </mxCell>
        <mxCell id="SSJctu6AzqgMsBqIdtnh-12" value="&lt;p style=&quot;margin: 0px ; margin-top: 6px ; text-align: center&quot;&gt;&lt;b&gt;ram&lt;/b&gt;&lt;/p&gt;&lt;hr&gt;&lt;p style=&quot;margin: 0px ; margin-left: 8px&quot;&gt;+ ram_save_iterate: int&lt;br&gt;+ ram_save_complete: int&lt;/p&gt;" style="align=left;overflow=fill;html=1;dropTarget=0;fontColor=#000000;" parent="1" vertex="1">
          <mxGeometry x="270" y="540" width="165" height="70" as="geometry" />
        </mxCell>
        <mxCell id="SSJctu6AzqgMsBqIdtnh-13" value="" style="shape=component;jettyWidth=8;jettyHeight=4;fontColor=#000000;" parent="SSJctu6AzqgMsBqIdtnh-12" vertex="1">
          <mxGeometry x="1" width="20" height="20" relative="1" as="geometry">
            <mxPoint x="-24" y="4" as="offset" />
          </mxGeometry>
        </mxCell>
        <mxCell id="SSJctu6AzqgMsBqIdtnh-15" value="" style="curved=1;endArrow=classic;html=1;rounded=0;fontColor=#000000;exitX=0.5;exitY=0;exitDx=0;exitDy=0;exitPerimeter=0;entryX=-0.015;entryY=0.146;entryDx=0;entryDy=0;entryPerimeter=0;" parent="1" source="SSJctu6AzqgMsBqIdtnh-1" target="SSJctu6AzqgMsBqIdtnh-7" edge="1">
          <mxGeometry width="50" height="50" relative="1" as="geometry">
            <mxPoint x="230" y="410" as="sourcePoint" />
            <mxPoint x="270" y="380" as="targetPoint" />
            <Array as="points">
              <mxPoint x="220" y="370" />
            </Array>
          </mxGeometry>
        </mxCell>
        <mxCell id="SSJctu6AzqgMsBqIdtnh-16" value="" style="curved=1;endArrow=classic;html=1;rounded=0;fontColor=#000000;exitX=0;exitY=1;exitDx=0;exitDy=0;" parent="1" source="SSJctu6AzqgMsBqIdtnh-7" edge="1">
          <mxGeometry width="50" height="50" relative="1" as="geometry">
            <mxPoint x="260" y="430" as="sourcePoint" />
            <mxPoint x="270" y="480" as="targetPoint" />
            <Array as="points">
              <mxPoint x="240" y="450" />
            </Array>
          </mxGeometry>
        </mxCell>
        <mxCell id="SSJctu6AzqgMsBqIdtnh-17" value="" style="curved=1;endArrow=classic;html=1;rounded=0;fontColor=#000000;exitX=0;exitY=1;exitDx=0;exitDy=0;" parent="1" edge="1">
          <mxGeometry width="50" height="50" relative="1" as="geometry">
            <mxPoint x="270" y="520" as="sourcePoint" />
            <mxPoint x="270" y="570" as="targetPoint" />
            <Array as="points">
              <mxPoint x="240" y="540" />
            </Array>
          </mxGeometry>
        </mxCell>
        <mxCell id="SSJctu6AzqgMsBqIdtnh-18" value="" style="strokeWidth=1;outlineConnect=0;dashed=0;align=center;fontSize=8;shape=mxgraph.eip.messageChannel;html=1;verticalLabelPosition=bottom;verticalAlign=top;fontColor=#000000;rotation=90;" parent="1" vertex="1">
          <mxGeometry x="485" y="470" width="120" height="45" as="geometry" />
        </mxCell>
        <mxCell id="SSJctu6AzqgMsBqIdtnh-19" value="page" style="whiteSpace=wrap;html=1;shape=mxgraph.basic.document;fontColor=#000000;" parent="1" vertex="1">
          <mxGeometry x="470" y="550" width="40" height="50" as="geometry" />
        </mxCell>
        <mxCell id="SSJctu6AzqgMsBqIdtnh-21" value="" style="curved=1;endArrow=classic;html=1;rounded=0;fontColor=#000000;exitX=1;exitY=0.5;exitDx=0;exitDy=0;exitPerimeter=0;entryX=1;entryY=0.5;entryDx=-2.7;entryDy=0;entryPerimeter=0;dashed=1;dashPattern=1 1;" parent="1" source="SSJctu6AzqgMsBqIdtnh-19" target="SSJctu6AzqgMsBqIdtnh-18" edge="1">
          <mxGeometry width="50" height="50" relative="1" as="geometry">
            <mxPoint x="510" y="570" as="sourcePoint" />
            <mxPoint x="550" y="560" as="targetPoint" />
            <Array as="points">
              <mxPoint x="540" y="570" />
            </Array>
          </mxGeometry>
        </mxCell>
        <mxCell id="SSJctu6AzqgMsBqIdtnh-22" value="destination VM" style="verticalLabelPosition=bottom;html=1;verticalAlign=top;align=center;strokeColor=none;fillColor=#00BEF2;shape=mxgraph.azure.computer;pointerEvents=1;" parent="1" vertex="1">
          <mxGeometry x="580" y="390" width="50" height="45" as="geometry" />
        </mxCell>
        <mxCell id="SSJctu6AzqgMsBqIdtnh-23" value="" style="curved=1;endArrow=classic;html=1;rounded=0;fontColor=#000000;exitX=0;exitY=0.5;exitDx=2.7;exitDy=0;exitPerimeter=0;dashed=1;dashPattern=1 1;" parent="1" source="SSJctu6AzqgMsBqIdtnh-18" target="SSJctu6AzqgMsBqIdtnh-22" edge="1">
          <mxGeometry width="50" height="50" relative="1" as="geometry">
            <mxPoint x="540" y="440" as="sourcePoint" />
            <mxPoint x="590" y="390" as="targetPoint" />
            <Array as="points">
              <mxPoint x="540" y="390" />
            </Array>
          </mxGeometry>
        </mxCell>
        <mxCell id="SSJctu6AzqgMsBqIdtnh-25" value="&lt;b&gt;QIO&lt;br&gt;channel&lt;/b&gt;" style="text;html=1;strokeColor=none;fillColor=none;align=center;verticalAlign=middle;whiteSpace=wrap;rounded=0;fontColor=#000000;" parent="1" vertex="1">
          <mxGeometry x="470" y="485" width="60" height="30" as="geometry" />
        </mxCell>
        <mxCell id="B5M5GUGNOvMxBTngDPz4-1" value="" style="endArrow=classic;html=1;rounded=0;" edge="1" parent="1">
          <mxGeometry width="50" height="50" relative="1" as="geometry">
            <mxPoint x="585" y="485" as="sourcePoint" />
            <mxPoint x="625" y="485" as="targetPoint" />
          </mxGeometry>
        </mxCell>
        <mxCell id="B5M5GUGNOvMxBTngDPz4-2" value="" style="endArrow=classic;html=1;rounded=0;dashed=1;dashPattern=1 1;" edge="1" parent="1">
          <mxGeometry width="50" height="50" relative="1" as="geometry">
            <mxPoint x="585" y="540" as="sourcePoint" />
            <mxPoint x="625" y="540" as="targetPoint" />
          </mxGeometry>
        </mxCell>
        <mxCell id="B5M5GUGNOvMxBTngDPz4-3" value="exec flow" style="text;html=1;strokeColor=none;fillColor=none;align=center;verticalAlign=middle;whiteSpace=wrap;rounded=0;" vertex="1" parent="1">
          <mxGeometry x="575" y="485" width="60" height="30" as="geometry" />
        </mxCell>
        <mxCell id="B5M5GUGNOvMxBTngDPz4-4" value="data flow" style="text;html=1;strokeColor=none;fillColor=none;align=center;verticalAlign=middle;whiteSpace=wrap;rounded=0;" vertex="1" parent="1">
          <mxGeometry x="575" y="540" width="60" height="30" as="geometry" />
        </mxCell>
      </root>
    </mxGraphModel>
  </diagram>
</mxfile>
